<?xml version="1.0" standalone="no"?>
<!DOCTYPE svg PUBLIC "-//W3C//DTD SVG 20010904//EN"
 "http://www.w3.org/TR/2001/REC-SVG-20010904/DTD/svg10.dtd">
<svg version="1.0" xmlns="http://www.w3.org/2000/svg"
 width="600.000000pt" height="315.000000pt" viewBox="0 0 600.000000 315.000000"
 preserveAspectRatio="xMidYMid meet">
<g transform="translate(0.000000,315.000000) scale(0.100000,-0.100000)"
fill="#FF0026" stroke="none">
<path d="M2227 2975 c-70 -96 -127 -179 -127 -184 0 -5 6 -11 13 -14 36 -15
467 -338 455 -342 -15 -6 -806 -218 -1017 -273 l-143 -37 5 -40 c3 -32 95
-392 103 -403 1 -2 129 31 284 73 155 42 284 74 287 71 2 -2 -104 -248 -236
-545 -133 -297 -241 -547 -241 -554 0 -12 381 -188 405 -187 6 0 61 116 124
258 62 141 116 260 120 264 4 4 128 -231 276 -523 149 -292 276 -533 284 -537
17 -6 401 183 401 199 0 6 -61 129 -135 274 -97 188 -130 262 -118 259 10 -3
279 -60 598 -128 506 -107 581 -121 586 -107 13 35 91 422 86 427 -4 5 -206
49 -570 125 -11 3 137 129 453 384 258 209 470 386 470 394 0 21 -271 352
-282 345 -6 -4 -119 -95 -252 -202 l-241 -195 -3 612 -2 611 -225 0 -225 0 -2
-278 -3 -278 -485 353 c-267 194 -492 353 -500 353 -9 0 -72 -77 -143 -175z
m662 -758 c112 -82 209 -150 215 -152 6 -2 66 73 134 167 l122 170 0 -326 0
-326 211 0 211 0 -215 -172 c-119 -95 -216 -178 -216 -185 -1 -9 163 -218 245
-314 11 -12 -52 -2 -259 42 -149 32 -282 61 -294 64 -26 6 -27 5 -74 -225 -17
-85 -34 -158 -38 -163 -4 -4 -67 110 -140 253 l-132 259 -188 -94 -189 -94
119 267 c66 147 118 273 117 280 -2 8 -85 50 -185 95 -101 44 -181 82 -179 84
3 3 554 153 562 153 9 0 1 38 -42 202 -25 95 -48 182 -51 192 -6 23 -26 36
266 -177z"/>
</g>
</svg>
