<?xml version="1.0" encoding="UTF-8"?>
<svg version="1.1" xmlns="http://www.w3.org/2000/svg" width="347" height="270">
    <path d="M0 0 C2.9009072 2.9009072 2.5790977 6.08326684 2.86962891 9.99462891 C2.93819595 10.82087769 3.006763 11.64712646 3.07740784 12.49841309 C3.30264602 15.24049145 3.51475225 17.98341677 3.7265625 20.7265625 C3.87994205 22.63273701 4.03403506 24.53885424 4.18881226 26.44491577 C4.51197401 30.44771958 4.8291257 34.45093789 5.14160156 38.45458984 C5.54117502 43.57294036 5.95135809 48.6903654 6.36556435 53.80755043 C6.68408008 57.74854449 6.99898225 61.68982014 7.312603 65.63120651 C7.46269184 67.51700148 7.61340308 69.40274702 7.76475906 71.2884407 C7.97622332 73.93504554 8.1833391 76.58195495 8.38916016 79.22900391 C8.45147324 80.00126312 8.51378632 80.77352234 8.57798767 81.56918335 C8.63399643 82.30090759 8.69000519 83.03263184 8.74771118 83.78652954 C8.82124534 84.72286193 8.82124534 84.72286193 8.89626503 85.67811012 C9.04983647 89.11548499 9 92.55919629 9 96 C50.58 96 92.16 96 135 96 C137.85667646 113.14005875 136.92863286 126.69876921 127.0390625 141.34375 C121.34806494 148.75731004 114.34865045 154.74955811 107.03125 160.50390625 C104.04580556 162.77242015 104.04580556 162.77242015 102.32447243 165.17658901 C98.41621065 169.72083207 95.21982565 172.09702495 89.28715134 172.82042122 C83.19956937 173.22971799 77.11363703 173.11405837 71.01708984 173.02172852 C68.67081806 173.01918783 66.32453912 173.0206188 63.97827148 173.02571106 C57.62719536 173.02828807 51.27765626 172.97546214 44.92693663 172.91254544 C38.95695677 172.86190869 32.98697332 172.85292807 27.01681955 172.84367859 C15.19793604 172.82401917 3.37961407 172.7642302 -8.43896484 172.67895508 C-19.91419684 172.59624382 -31.38927588 172.53258751 -42.86474609 172.49438477 C-43.92716266 172.490838 -43.92716266 172.490838 -45.01104219 172.48721958 C-48.56454385 172.47547357 -52.11804658 172.46410036 -55.67155004 172.45291245 C-85.1147285 172.35973141 -114.55735823 172.20064575 -144 172 C-145.31425095 167.39573956 -146.61383189 162.78768045 -147.90014648 158.17553711 C-148.33952094 156.60800843 -148.78284324 155.04158063 -149.23022461 153.47631836 C-149.87360749 151.2226891 -150.50256229 148.96544699 -151.12890625 146.70703125 C-151.4319442 145.66298882 -151.4319442 145.66298882 -151.74110413 144.59785461 C-152.79836965 140.7250537 -153.26714406 137.85148521 -152 134 C-150.68408203 132.29003906 -150.68408203 132.29003906 -149.0078125 130.765625 C-148.39091553 130.19642334 -147.77401855 129.62722168 -147.13842773 129.04077148 C-146.47399658 128.44981689 -145.80956543 127.8588623 -145.125 127.25 C-144.4431665 126.62875244 -143.76133301 126.00750488 -143.05883789 125.36743164 C-138.43919302 121.19059544 -133.67661679 117.22413553 -128.80859375 113.33984375 C-125.41762466 110.51482221 -122.21209555 107.52498319 -119 104.5 C-114.09041759 99.87703105 -109.05521221 95.53398633 -103.7890625 91.31640625 C-99.36265837 87.64013503 -95.19198888 83.69573628 -90.984375 79.7734375 C-86.36646239 75.46894486 -81.59238393 71.35687595 -76.7890625 67.26171875 C-70.24344569 61.67681067 -63.77960493 56.03446039 -57.43359375 50.22265625 C-52.962935 46.13950243 -48.38858111 42.18157621 -43.78125 38.25390625 C-37.23748858 32.67243614 -30.77691033 27.03199262 -24.43359375 21.22265625 C-16.46842057 13.94788331 -8.19673116 7.01096809 0 0 Z " fill="#5CA380" transform="translate(153,96)"/>
    <path d="M0 0 C2.34627179 0.00254069 4.69255072 0.00110971 7.03881836 -0.00398254 C13.38989448 -0.00655955 19.73943359 0.04626637 26.09015322 0.10918307 C32.06013308 0.15981982 38.03011653 0.16880045 44.00027029 0.17804993 C55.81915381 0.19770934 67.63747577 0.25749831 79.45605469 0.34277344 C90.93128668 0.42548469 102.40636572 0.489141 113.88183594 0.52734375 C114.94425251 0.53089052 114.94425251 0.53089052 116.02813204 0.53450894 C119.58163369 0.54625495 123.13513643 0.55762816 126.68863988 0.56881607 C156.13181834 0.66199711 185.57444808 0.82108277 215.01708984 1.02172852 C216.30725907 5.48508878 217.58872387 9.95082334 218.86230469 14.41894531 C219.29646274 15.93752721 219.73296134 17.45544203 220.171875 18.97265625 C220.80358545 21.15785874 221.42674568 23.34534869 222.04833984 25.53344727 C222.34363586 26.54467903 222.34363586 26.54467903 222.64489746 27.57633972 C223.64663548 31.13597535 224.35393861 34.31977328 224.01708984 38.02172852 C222.87255859 39.72485352 222.87255859 39.72485352 221.20458984 41.27172852 C220.56005859 41.87243164 219.91552734 42.47313477 219.25146484 43.09204102 C215.93573787 45.9556234 212.52132739 48.69116171 209.10693359 51.43579102 C205.6031766 54.31456578 202.31602174 57.41278276 199.01708984 60.52172852 C194.12629358 65.12770743 189.10940092 69.44787966 183.86083984 73.64672852 C180.46073912 76.48637307 177.2412254 79.48560951 174.01708984 82.52172852 C169.1260954 87.12750298 164.10941896 91.44786522 158.86083984 95.64672852 C155.46073799 98.48637402 152.24123885 101.48562222 149.01708984 104.52172852 C144.10748686 109.1446781 139.07230441 113.4877403 133.80615234 117.70532227 C129.37974822 121.38159348 125.20907872 125.32599224 121.00146484 129.24829102 C116.38355223 133.55278365 111.60947378 137.66485257 106.80615234 141.76000977 C100.27036573 147.33653044 93.81719227 152.97167145 87.47802734 158.77172852 C85.25269885 160.80631457 83.02069303 162.83102568 80.76708984 164.83422852 C80.20505859 165.33567383 79.64302734 165.83711914 79.06396484 166.35375977 C77.21536763 167.86015483 75.33226263 169.24546219 73.38916016 170.62597656 C72.44233368 171.29949409 72.44233368 171.29949409 71.47637939 171.98661804 C70.99481384 172.3282045 70.51324829 172.66979095 70.01708984 173.02172852 C68.6463903 161.18430893 67.47341886 149.34805337 66.50927734 137.47094727 C66.37778108 135.87195995 66.24611438 134.27298665 66.11428833 132.67402649 C65.84212526 129.3659872 65.57173466 126.05780966 65.30273438 122.74951172 C64.95850205 118.51734592 64.61005904 114.28553896 64.26037407 110.05382061 C63.98948138 106.77084153 63.72058056 103.4877017 63.45230484 100.20450783 C63.32449221 98.64279334 63.19611013 97.08112535 63.06713486 95.51950645 C62.88813637 93.34812265 62.7117792 91.17654 62.53613281 89.00488281 C62.43557587 87.7734404 62.33501892 86.54199799 62.23141479 85.27323914 C62.05044555 82.52776581 62.01708984 79.77315971 62.01708984 77.02172852 C20.43708984 77.02172852 -21.14291016 77.02172852 -63.98291016 77.02172852 C-66.94875428 62.19250788 -65.61955823 47.49049723 -57.85791016 34.33422852 C-51.95300021 25.6778818 -44.20118027 18.9560327 -36.01416016 12.51782227 C-33.02871572 10.24930837 -33.02871572 10.24930837 -31.30738258 7.8451395 C-22.88694319 -1.94553612 -11.95512536 -0.18105577 0 0 Z " fill="#5960B2" transform="translate(122.98291015625,-1.021728515625)"/>
</svg>
